<svg width="54" height="79" viewBox="0 0 54 79" fill="none" xmlns="http://www.w3.org/2000/svg">
<rect x="31.7546" y="58.9153" width="4.2335" height="20.0847" fill="#55BEF9"/>
<rect x="16.2318" y="58.9153" width="4.2335" height="20.0847" fill="#55BEF9"/>
<path d="M24.285 24.1552C24.9914 22.5795 27.2285 22.5795 27.9349 24.1552L41.9559 55.4275C42.5491 56.7508 41.581 58.2458 40.1309 58.2458H12.089C10.6389 58.2458 9.67076 56.7508 10.264 55.4275L24.285 24.1552Z" fill="#55BEF9"/>
<path d="M31.3326 25.3282L48.6117 51.0488L44.4541 53.1732L31.3326 25.3282Z" fill="#55BEF9"/>
<path d="M31.3326 25.3282L48.6117 51.0488L44.4541 53.1732L31.3326 25.3282Z" fill="#55BEF9"/>
<path d="M31.3326 25.3282L48.6117 51.0488L44.4541 53.1732L31.3326 25.3282Z" fill="#55BEF9"/>
<path d="M31.3326 25.3282L48.6117 51.0488L44.4541 53.1732L31.3326 25.3282Z" fill="#55BEF9"/>
<path d="M20.0525 24.405L9.02962 53.0574L4.72476 51.2161L20.0525 24.405Z" fill="#55BEF9"/>
<path d="M20.0525 24.405L9.02962 53.0574L4.72476 51.2161L20.0525 24.405Z" fill="#55BEF9"/>
<path d="M20.0525 24.405L9.02962 53.0574L4.72476 51.2161L20.0525 24.405Z" fill="#55BEF9"/>
<path d="M20.0525 24.405L9.02962 53.0574L4.72476 51.2161L20.0525 24.405Z" fill="#55BEF9"/>
<ellipse cx="26.11" cy="9.37288" rx="9.87816" ry="9.37288" fill="#1CA8F8" fill-opacity="0.75"/>
</svg>
