<svg width="120" height="100" viewBox="0 0 120 100" fill="none" xmlns="http://www.w3.org/2000/svg">
<g id="femalesign">
<g id="female-leftarm">
<rect id="female-arm" x="64" y="33.217" width="5.32482" height="28.9707" rx="2.66241" transform="rotate(-24.6048 64 33.217)" fill="#C5CBCF"/>
</g>
<g id="rest">
<path id="Rectangle 2" d="M63 65H70V81.5847C70 83.5177 68.433 85.0847 66.5 85.0847C64.567 85.0847 63 83.5177 63 81.5847V65Z" fill="#C5CBCF"/>
<rect id="Rectangle 4" x="51.0599" y="31" width="5.32482" height="28.9707" rx="2.66241" transform="rotate(24.6 51.0599 31)" fill="#C5CBCF"/>
<path id="Rectangle 1" d="M50 65H57V81.5847C57 83.5177 55.433 85.0847 53.5 85.0847C51.567 85.0847 50 83.5177 50 81.5847V65Z" fill="#C5CBCF"/>
<path id="Polygon 1" d="M56.46 35.2256C57.8729 32.0742 62.347 32.0742 63.7599 35.2256L74.6923 59.6093C75.8788 62.2558 73.9426 65.2458 71.0424 65.2458H49.1775C46.2773 65.2458 44.341 62.2558 45.5276 59.6093L56.46 35.2256Z" fill="#C5CBCF"/>
<circle id="Ellipse 1" cx="60.5" cy="21.5" r="7.5" fill="#C5CBCF"/>
<path id="Polygon 2" d="M61.7459 42.1035C61.0158 42.6762 59.9877 42.6714 59.2629 42.092L49.8897 34.5996C48.409 33.416 49.2522 31.0286 51.1477 31.0374L69.9629 31.1245C71.8585 31.1332 72.6795 33.5283 71.188 34.6982L61.7459 42.1035Z" fill="#C5CBCF"/>
</g>
</g>
</svg>
