<svg width="120" height="100" viewBox="0 0 120 100" fill="none" xmlns="http://www.w3.org/2000/svg">
<g id="malesign">
<g id="male-leftarm">
<path id="male-arm" d="M65.3279 32.718C64.7441 31.4095 65.33 29.872 66.6366 29.2839V29.2839C68.7271 28.3429 71.179 29.2773 72.113 31.3709L80.8515 50.9574C81.6104 52.6585 80.8487 54.6572 79.1502 55.4218V55.4218C77.4517 56.1863 75.4595 55.4272 74.7006 53.7261L65.3279 32.718Z" fill="#C5CBCF"/>
</g>
<g id="rest">
<path id="rightarm" d="M45.4256 31.3874C46.2774 29.5097 48.4901 28.678 50.3678 29.5297V29.5297C52.0108 30.275 52.7385 32.2111 51.9932 33.8541L42.4078 54.985C41.6093 56.7454 39.5349 57.5251 37.7745 56.7265V56.7265C36.0142 55.928 35.2345 53.8536 36.033 52.0933L45.4256 31.3874Z" fill="#C5CBCF"/>
<path id="Rectangle 2" d="M60.9578 60H68.9578V85C68.9578 87.2091 67.167 89 64.9578 89C62.7487 89 60.9578 87.2091 60.9578 85V60Z" fill="#C5CBCF"/>
<path id="Rectangle 1" d="M47.9578 59H55.9578V85C55.9578 87.2091 54.167 89 51.9578 89C49.7487 89 47.9578 87.2091 47.9578 85V59Z" fill="#C5CBCF"/>
<circle id="Ellipse 1" cx="58.5" cy="18.5" r="7.5" fill="#C5CBCF"/>
<path id="Rectangle 5" d="M48 30C48 29.4477 48.4477 29 49 29H68C68.5523 29 69 29.4477 69 30V60H48V30Z" fill="#C5CBCF"/>
</g>
</g>
</svg>
